<svg width="155" height="46" viewBox="0 0 155 46" fill="none" xmlns="http://www.w3.org/2000/svg">
<path d="M11.2352 12.7064V17.4411C11.2593 20.6096 11.3109 22.3847 11.3898 22.7664C11.4961 23.1421 11.8162 23.4454 12.3489 23.691C12.6725 23.8334 12.9516 24.0512 13.1595 24.3235C13.3431 24.586 13.4374 24.9787 13.4374 25.4925C13.4374 26.1714 13.2658 26.6241 12.9167 26.8504C12.6497 27.0235 12.2185 27.1129 11.6205 27.1129C11.4188 27.1129 10.6735 27.0835 9.38332 27.0292C8.52444 26.9885 7.70783 26.9703 6.92022 26.9703C6.13261 26.9703 5.31721 26.9885 4.45833 27.0292C3.16819 27.0835 2.41682 27.1129 2.20904 27.1129C1.61712 27.1129 1.1907 27.0235 0.924942 26.8504C0.575832 26.6241 0.404297 26.1646 0.404297 25.4925C0.404297 24.9787 0.498523 24.5872 0.682138 24.3235C0.891076 24.0498 1.17251 23.8318 1.49874 23.691C2.02543 23.4465 2.34434 23.1421 2.45185 22.7664C2.53238 22.3726 2.58392 20.5975 2.60647 17.4411V12.7064C2.58231 9.52662 2.53077 7.75113 2.45185 7.37996C2.34555 7.00426 2.02543 6.701 1.49874 6.45544C1.17385 6.31313 0.892866 6.09586 0.682138 5.824C0.498523 5.55581 0.404297 5.17333 0.404297 4.67202C0.404297 3.9874 0.575832 3.52797 0.924942 3.29486C1.1907 3.12285 1.62316 3.03232 2.22716 3.03232C2.3987 3.03232 3.14403 3.06854 4.45833 3.13983C5.28097 3.18736 6.09758 3.21225 6.92022 3.21225C7.74286 3.21225 8.56068 3.18736 9.38332 3.13983C10.6968 3.06816 11.4426 3.03232 11.6205 3.03232C12.2245 3.03232 12.6497 3.12285 12.9167 3.29486C13.2658 3.52797 13.4374 3.9874 13.4374 4.67202C13.4374 5.17333 13.3431 5.55581 13.1595 5.824C12.9498 6.09452 12.6711 6.31159 12.3489 6.45544C11.8162 6.71231 11.4961 7.02124 11.3898 7.37996C11.3093 7.77376 11.2577 9.54925 11.2352 12.7064ZM15.8618 19.4395V15.1269C15.8618 14.5306 15.7784 14.0417 15.6069 13.6559C15.4861 13.3752 15.2445 13.1364 14.8676 12.9339C14.6641 12.838 14.4683 12.7283 14.2817 12.6057C13.9616 12.3613 13.7985 11.9675 13.7985 11.4311C13.7985 10.7929 14.1356 10.2859 14.8048 9.91023C16.9478 8.73562 19.3606 7.92653 22.0431 7.48294C22.2487 7.45018 22.4567 7.43239 22.6652 7.42975C22.8399 7.42409 23.0134 7.45796 23.1711 7.52848C23.3288 7.599 23.4661 7.7041 23.5712 7.83487C23.7214 8.053 23.7937 8.31016 23.7778 8.56928V8.8137C23.7778 9.26635 23.9433 9.50512 24.2803 9.50512C24.4518 9.50512 24.743 9.39195 25.1452 9.18826C26.7664 8.34786 28.2965 7.92879 29.7356 7.93105C30.8228 7.93105 31.91 8.22866 32.9972 8.83634C33.392 9.04498 33.7646 9.28863 34.1098 9.56396C34.593 10.0053 34.9155 10.226 35.0762 10.226C35.2115 10.226 35.5594 10.0528 36.0933 9.70768C36.8334 9.21882 37.7905 8.80126 38.9647 8.45499C40.1364 8.10871 41.1657 7.93671 42.0608 7.93671C43.1256 7.9299 44.1767 8.16275 45.1255 8.61567C46.0095 9.01792 46.7498 9.65203 47.2564 10.441C48.1277 11.7989 48.5618 13.5084 48.5586 15.5694V19.4463C48.5707 20.9242 48.6238 21.9505 48.7192 22.5175C48.7512 22.8089 48.8542 23.0895 49.0203 23.3377C49.1864 23.5859 49.4111 23.795 49.6772 23.949C50.1217 24.2047 50.402 24.4254 50.5228 24.6109C50.6716 24.9047 50.7428 25.2275 50.7306 25.5524C50.7306 26.2031 50.553 26.6501 50.1918 26.8945C49.9731 27.0439 49.612 27.1208 49.1143 27.1208C48.9935 27.1208 48.2687 27.0914 46.9242 27.0371C46.0894 26.9964 45.2257 26.9783 44.3318 26.9783C43.4621 26.9783 42.2601 27.0258 40.7151 27.1208H40.4554C39.5844 27.1208 39.1531 26.5958 39.1531 25.5524C39.1531 25.0161 39.3009 24.5747 39.5965 24.2285C40.0471 23.7158 40.3213 23.2745 40.4131 22.8988C40.5315 22.505 40.5967 21.3542 40.6088 19.4463V15.9508C40.6088 14.6562 40.2279 13.6838 39.466 13.0335C38.9936 12.6117 38.367 12.3749 37.7144 12.3715C36.9268 12.3715 36.4424 12.6521 36.2588 13.2066C36.1879 13.4156 36.1476 14.2009 36.138 15.5626V19.4395C36.1613 21.5209 36.2443 22.7313 36.3868 23.0708C36.5739 23.4913 36.8334 23.8801 37.1551 24.2217C37.4462 24.5317 37.5936 24.9731 37.5936 25.5457C37.5936 26.1839 37.4523 26.6309 37.1624 26.8877C36.9775 27.0371 36.6888 27.1141 36.2914 27.1141C36.1911 27.1141 35.5932 27.0846 34.5108 27.0303C33.8295 26.9896 33.0129 26.9715 32.0658 26.9715C31.1188 26.9715 29.8637 27.019 28.3368 27.1141H28.0638C27.194 27.1141 26.7627 26.589 26.7627 25.5457C26.7492 25.2242 26.8072 24.9035 26.9331 24.6042C27.0767 24.3653 27.2498 24.1431 27.4489 23.9422C27.7978 23.531 28.0115 23.0336 28.0638 22.5107C28.129 21.9981 28.1713 20.9774 28.1846 19.4395V15.9508C28.1846 14.709 27.8354 13.7607 27.1372 13.1059C26.8982 12.8746 26.6122 12.6904 26.296 12.5643C25.9798 12.4381 25.6399 12.3726 25.2962 12.3715C24.6101 12.3715 24.1668 12.5808 23.9674 13.004C23.8466 13.2609 23.7778 13.9093 23.7778 14.9538V19.4395C23.8019 21.5205 23.878 22.7313 24.0194 23.0708C24.196 23.4927 24.4503 23.8822 24.7708 24.2217C25.0542 24.5438 25.1964 24.9851 25.1972 25.5457C25.1972 26.589 24.7647 27.1141 23.895 27.1141C23.7947 27.1141 23.2088 27.0846 22.1482 27.0303C21.4923 26.9896 20.7288 26.9715 19.853 26.9715C18.9301 26.9715 17.5276 27.019 15.6456 27.1141H15.3134C14.254 27.1141 13.7212 26.5833 13.7212 25.5298C13.7072 25.2106 13.7786 24.8932 13.929 24.6064C14.0353 24.4208 14.3075 24.2002 14.7456 23.9444C15.006 23.7839 15.2269 23.5731 15.3936 23.3263C15.5602 23.0795 15.6688 22.8022 15.712 22.5129C15.7893 21.9471 15.8328 20.9287 15.8485 19.4418L15.8618 19.4395ZM52.1451 27.3234V15.1269C52.1451 14.5306 52.0618 14.0417 51.8902 13.6559C51.7694 13.3752 51.5278 13.1364 51.1509 12.9339C50.9471 12.8379 50.7509 12.7282 50.5639 12.6057C50.2449 12.3613 50.0807 11.9675 50.0807 11.4311C50.0807 10.7929 50.4177 10.2859 51.0869 9.91023C53.2243 8.73562 55.635 7.92653 58.3192 7.48294C58.5264 7.44992 58.736 7.43214 58.9461 7.42975C59.1199 7.42406 59.2926 7.45794 59.4494 7.5285C59.6061 7.59906 59.7422 7.70419 59.8461 7.83487C59.9886 8.008 60.0539 8.25243 60.0539 8.56928C60.0539 9.02758 60.1602 9.2539 60.3667 9.2539C60.4622 9.2539 60.7521 9.12377 61.2486 8.86689C62.4928 8.21622 63.7238 7.89484 64.9487 7.89484C67.1327 7.89484 68.9121 8.71186 70.2868 10.3459C71.8741 12.2063 72.6673 14.5619 72.6665 17.4128C72.6756 18.8391 72.4357 20.2573 71.9562 21.6111C71.5371 22.8382 70.8589 23.9738 69.9618 24.9504C68.3455 26.6509 66.2114 27.5018 63.5595 27.5033C62.9038 27.5022 62.2533 27.3954 61.6363 27.1876C61.1278 27.0145 60.8197 26.9307 60.7014 26.9307C60.4114 26.9307 60.2689 27.1571 60.2689 27.5927V28.3328C60.2689 29.2381 60.322 29.9171 60.4283 30.3844C60.5769 30.9977 61.0323 31.4696 61.7668 31.7978C62.3406 32.0479 62.7018 32.2742 62.8673 32.4768C63.0646 32.7464 63.1622 33.0691 63.1451 33.3956C63.1451 33.8969 62.9977 34.2839 62.6958 34.5646C62.3938 34.8452 61.8018 34.9821 60.955 34.9821C60.7956 34.9821 60.014 34.9459 58.6296 34.869C57.784 34.8271 56.9384 34.8033 56.0928 34.8033C55.2472 34.8033 53.8726 34.8565 51.9374 34.964C51.8275 34.9766 51.717 34.9826 51.6064 34.9821C50.5409 34.9821 50.0082 34.4514 50.0082 33.3979C49.9946 33.0785 50.0656 32.7609 50.2147 32.4734C50.3219 32.2885 50.5945 32.0622 51.0326 31.7944C51.2939 31.6407 51.5159 31.435 51.6829 31.1919C51.8499 30.9488 51.9578 30.6743 51.999 30.3878C52.0763 29.8152 52.1198 28.7956 52.1355 27.3223L52.1451 27.3234ZM60.0551 15.2277V19.5097C60.0672 20.934 60.1263 21.7808 60.2326 22.0501C60.4042 22.4677 60.8004 22.6759 61.4165 22.6759C62.3023 22.6759 63.0006 22.2466 63.5111 21.3881C63.979 20.6073 64.2118 19.653 64.2094 18.5252C64.2015 16.9819 63.838 15.4584 63.1439 14.0587C62.5882 12.9082 61.9194 12.3338 61.1374 12.3353C60.9731 12.3284 60.81 12.3657 60.6675 12.4426C60.525 12.5196 60.4089 12.6331 60.3329 12.7698C60.1493 13.0742 60.0551 13.8912 60.0551 15.2277ZM89.8925 16.0979L82.8729 17.7206C82.0671 17.9107 81.6178 18.025 81.5284 18.0725C81.4354 18.1067 81.3556 18.1666 81.2997 18.2442C81.2439 18.3218 81.2145 18.4135 81.2155 18.5071C81.2155 19.0321 81.6057 19.7518 82.3933 20.6718C83.222 21.6525 84.2399 22.1429 85.4471 22.1429C86.637 22.1429 87.7423 21.7559 88.7679 20.974C89.4371 20.4613 89.8551 20.1818 90.0109 20.1388C90.144 20.0941 90.2839 20.07 90.4253 20.0675C90.599 20.0652 90.7703 20.1058 90.922 20.1853C91.0736 20.2647 91.2002 20.3803 91.289 20.5202C91.4703 20.7664 91.5618 21.0609 91.5499 21.3598C91.5499 22.1056 91.2177 22.9226 90.5606 23.8052C89.5132 25.2367 87.903 26.2869 85.7491 26.9489C84.4737 27.3445 83.1388 27.5458 81.7953 27.5452C79.2561 27.5452 77.2537 26.8115 75.788 25.3442C74.7213 24.2703 73.976 22.8332 73.5375 21.0328C73.3041 20.0762 73.187 19.0979 73.1884 18.1167C73.1746 16.591 73.4868 15.0781 74.1065 13.6672C74.6913 12.3395 75.592 11.1544 76.7399 10.2022C78.6582 8.61794 80.87 7.82581 83.3754 7.82581C86.0741 7.82581 88.2227 8.6749 89.8213 10.3731C90.9991 11.6314 91.5849 12.961 91.5849 14.3744C91.5849 14.8701 91.4545 15.2695 91.1887 15.5615C90.993 15.7697 90.5606 15.9496 89.8925 16.0979ZM81.3508 14.947L83.3404 14.3812C84.1509 14.1606 84.5484 13.7668 84.5484 13.1942C84.532 12.7376 84.363 12.2975 84.0652 11.9358C83.6979 11.4077 83.2365 11.1437 82.6808 11.1437C82.0466 11.1437 81.497 11.4481 81.0343 12.049C80.5903 12.6318 80.3543 13.3313 80.3602 14.0474C80.3602 14.6856 80.5499 15.007 80.934 15.007C81.0747 14.999 81.2139 14.975 81.3484 14.9357L81.3508 14.947ZM101.939 15.884V19.4271C101.962 20.9649 102.027 21.9969 102.127 22.522C102.27 23.1421 102.708 23.6129 103.435 23.941C104.01 24.1979 104.372 24.4186 104.537 24.603C104.732 24.8826 104.829 25.212 104.815 25.5457C104.815 26.0458 104.668 26.4396 104.366 26.7203C104.064 27.0009 103.472 27.1378 102.613 27.1378C102.465 27.1378 101.714 27.1016 100.363 27.0247C99.565 26.9828 98.7181 26.959 97.8267 26.959C96.998 26.959 95.6426 27.0066 93.7726 27.1016H93.4585C92.4003 27.1016 91.8664 26.5709 91.8664 25.5174C91.8524 25.1982 91.9238 24.8807 92.0742 24.594C92.1805 24.4084 92.4527 24.1877 92.8908 23.932C93.151 23.7712 93.3717 23.5604 93.5383 23.3136C93.7049 23.0668 93.8136 22.7896 93.8572 22.5005C93.9345 21.9347 93.978 20.9162 93.9925 19.4293V15.033C93.9925 14.4186 93.9103 13.9535 93.7509 13.6559C93.5873 13.3474 93.3245 13.0949 92.9995 12.9339C92.7961 12.8377 92.6003 12.728 92.4136 12.6057C92.0947 12.3613 91.9304 11.9675 91.9304 11.4311C91.9304 10.7929 92.2687 10.2859 92.9367 9.91023C95.0797 8.73562 97.5005 7.92653 100.199 7.48294C100.41 7.45056 100.624 7.43278 100.838 7.42975C101.383 7.42975 101.726 7.64475 101.875 8.07929C101.935 8.31979 101.959 8.56698 101.946 8.8137V9.88081C101.946 10.3697 102.046 10.6141 102.242 10.6141C102.532 10.6141 102.987 10.2327 103.614 9.46325C104.496 8.41991 105.396 7.89484 106.325 7.89484C106.788 7.89652 107.24 8.0226 107.628 8.25809C108.037 8.49585 108.369 8.8345 108.586 9.23693C109.06 10.0705 109.297 11.1916 109.297 12.6001C109.297 15.3793 108.596 16.7689 107.196 16.7689C106.059 16.7689 105.068 16.0145 104.224 14.5057C103.887 13.8924 103.479 13.5823 103.005 13.5823C102.591 13.5823 102.301 13.7249 102.134 14.0168C102.014 14.25 101.946 14.8757 101.946 15.8896L101.939 15.884ZM111.68 19.4327V15.1269C111.68 14.5306 111.597 14.0417 111.425 13.6559C111.304 13.3752 111.063 13.1364 110.686 12.9339C110.482 12.838 110.286 12.7283 110.1 12.6057C109.78 12.3613 109.617 11.9675 109.617 11.4311C109.617 10.7929 109.954 10.2859 110.623 9.91023C112.771 8.73562 115.19 7.92653 117.879 7.48294C118.093 7.4503 118.308 7.43252 118.524 7.42975C119.063 7.42975 119.412 7.64475 119.56 8.07929C119.62 8.31973 119.644 8.56698 119.631 8.8137V19.435C119.643 20.9253 119.696 21.9449 119.79 22.5062C119.826 22.7966 119.931 23.0759 120.097 23.3236C120.263 23.5713 120.486 23.7811 120.75 23.9376C121.205 24.1934 121.484 24.4141 121.595 24.5996C121.744 24.8933 121.815 25.2162 121.803 25.5411C121.803 26.1918 121.625 26.6388 121.264 26.8832C121.033 27.0326 120.672 27.1095 120.187 27.1095C120.074 27.1095 119.37 27.0801 118.074 27.0258C117.262 26.9851 116.427 26.9669 115.57 26.9669C114.712 26.9669 113.326 27.0145 111.479 27.1095H111.148C110.083 27.1095 109.55 26.5788 109.55 25.5253C109.536 25.2062 109.607 24.889 109.757 24.6019C109.863 24.4163 110.136 24.1956 110.575 23.9399C110.835 23.7793 111.056 23.5686 111.223 23.3218C111.389 23.0749 111.498 22.7977 111.541 22.5084C111.618 21.9426 111.662 20.9242 111.678 19.4372L111.68 19.4327ZM116.933 0.382102C117.999 0.382102 118.791 0.788349 119.324 1.60537C119.616 2.03934 119.772 2.54108 119.775 3.05383C119.775 3.97269 119.171 4.83724 117.963 5.63615C116.714 6.47656 115.392 6.89601 113.997 6.8945C113.197 6.8945 112.57 6.71005 112.109 6.3287C111.89 6.15974 111.716 5.94618 111.599 5.70435C111.482 5.46252 111.425 5.19883 111.434 4.93342C111.434 3.93082 112.097 2.90558 113.422 1.84414C114.659 0.86341 115.831 0.373047 116.938 0.373047L116.933 0.382102ZM140.154 15.3725V20.7522C140.145 21.0886 140.157 21.4252 140.189 21.7604C140.26 22.0411 140.43 22.178 140.686 22.178C140.863 22.1712 141.038 22.143 141.207 22.0943C141.435 22.0221 141.671 21.9779 141.911 21.963C142.35 21.963 142.568 22.2731 142.568 22.8875C142.568 24.0859 141.893 25.1111 140.539 25.9768C138.97 26.9726 137.161 27.4716 135.11 27.4739C134.33 27.4739 133.744 27.3245 133.365 27.0213C132.985 26.718 132.683 26.2823 132.441 25.6916C132.329 25.4223 132.222 25.291 132.134 25.291C132.062 25.3091 131.997 25.3442 131.944 25.3929C130.115 26.7825 128.231 27.4765 126.292 27.475C124.912 27.475 123.835 27.045 123.048 26.1805C122.379 25.4461 122.042 24.4265 122.042 23.1093C122.042 20.9321 122.815 19.286 124.361 18.171C125.002 17.7183 125.972 17.3008 127.274 16.9262C127.452 16.8787 128.268 16.6693 129.736 16.2936C131.033 15.9723 131.789 15.6384 131.991 15.3035C132.151 15.0772 132.233 14.5227 132.233 13.6581C132.233 12.2742 131.618 11.5828 130.38 11.5828C129.498 11.5828 128.64 11.9041 127.793 12.5424C127.32 12.8999 126.748 13.5035 126.077 14.3529C125.847 14.6614 125.592 14.9528 125.313 15.2243C125.057 15.4555 124.716 15.5855 124.36 15.5875C123.911 15.5875 123.515 15.3012 123.166 14.7354C122.815 14.148 122.635 13.4846 122.644 12.8117C122.644 11.9947 122.875 11.3089 123.337 10.7544C124.011 9.93739 125.3 9.25126 127.203 8.69602C129.048 8.17165 130.968 7.91258 132.897 7.92766C135.773 7.92766 137.762 8.59757 138.863 9.93739C139.721 10.9807 140.148 12.7936 140.148 15.3691L140.154 15.3725ZM131.654 19.1328C131.156 19.1328 130.641 19.3177 130.109 19.6873C129.505 20.1049 129.209 20.7058 129.209 21.4821C129.199 21.6841 129.234 21.8859 129.312 22.0748C129.389 22.2636 129.507 22.4355 129.659 22.5797C129.78 22.6925 129.924 22.7813 130.083 22.8408C130.242 22.9002 130.412 22.9292 130.583 22.926C131.701 22.926 132.262 21.9453 132.264 19.9838C132.268 19.7984 132.256 19.6129 132.228 19.4293C132.181 19.2324 131.986 19.1317 131.654 19.1317V19.1328ZM144.315 19.4395V9.13395C144.315 8.52515 144.232 8.03063 144.06 7.64928C143.939 7.36864 143.698 7.12987 143.32 6.92732C143.116 6.83861 142.92 6.73494 142.734 6.61726C142.415 6.36038 142.251 5.96093 142.251 5.42454C142.251 4.78632 142.589 4.27936 143.257 3.90366C145.4 2.72906 147.807 1.91995 150.478 1.47636C150.689 1.44274 150.903 1.42457 151.117 1.42204C151.662 1.42204 152.011 1.63705 152.16 2.07272C152.207 2.20964 152.23 2.53215 152.23 3.03232V19.4406C152.242 20.931 152.295 21.9505 152.391 22.5118C152.426 22.8023 152.53 23.0816 152.696 23.3293C152.862 23.5771 153.085 23.7868 153.349 23.9433C153.805 24.199 154.083 24.4197 154.194 24.6053C154.343 24.899 154.414 25.2219 154.402 25.5468C154.402 26.1975 154.224 26.6444 153.863 26.8889C153.632 27.0382 153.271 27.1152 152.786 27.1152C152.665 27.1152 151.969 27.0858 150.685 27.0315C149.885 26.9907 149.056 26.9726 148.199 26.9726C147.305 26.9726 145.943 27.0201 144.115 27.1152H143.784C142.718 27.1152 142.185 26.5845 142.185 25.5309C142.171 25.2118 142.242 24.8944 142.392 24.6075C142.498 24.422 142.77 24.2013 143.209 23.9456C143.469 23.7849 143.69 23.5742 143.856 23.3274C144.023 23.0805 144.132 22.8033 144.175 22.5141C144.252 21.9483 144.296 20.9298 144.311 19.4429" fill="white"/>
<path d="M78.3762 35.9202V40.209C78.369 40.4774 78.3783 40.7461 78.404 41.0135C78.4608 41.2399 78.5924 41.3462 78.8002 41.3462C78.9412 41.3411 79.0809 41.3186 79.2158 41.2795C79.3973 41.2217 79.5862 41.1863 79.7775 41.1742C80.1266 41.1742 80.3017 41.4221 80.3017 41.912C80.3017 42.8671 79.763 43.6853 78.683 44.3744C77.4316 45.1688 75.9888 45.5668 74.3548 45.5683C73.7315 45.5683 73.2676 45.4551 72.9632 45.2073C72.6277 44.9159 72.3745 44.5512 72.2263 44.1458C72.1369 43.932 72.0523 43.8278 71.9847 43.8278C71.9277 43.8424 71.8757 43.8705 71.8337 43.9093C70.3752 45.016 68.8733 45.569 67.3279 45.5683C66.2274 45.5683 65.3685 45.2288 64.7416 44.5362C64.2076 43.9512 63.9395 43.1387 63.9395 42.0874C63.9395 40.3523 64.5559 39.04 65.7889 38.1506C66.2987 37.7896 67.073 37.4569 68.1107 37.1615C68.252 37.1231 68.9031 36.9567 70.0736 36.658C71.1077 36.4011 71.7069 36.134 71.8712 35.8658C71.9992 35.6803 72.0656 35.2435 72.0656 34.5543C72.0656 33.4514 71.5732 32.8995 70.5883 32.8988C69.8852 32.8988 69.2003 33.1556 68.5262 33.6649C68.1481 33.95 67.6903 34.4298 67.1576 35.1099C66.9757 35.3555 66.7738 35.5874 66.5536 35.8036C66.3496 35.9884 66.0775 36.0926 65.7937 36.0944C65.4313 36.0944 65.1136 35.8681 64.8406 35.4155C64.5619 34.9478 64.4186 34.42 64.4251 33.8844C64.4251 33.2326 64.6091 32.6856 64.9771 32.2436C65.5151 31.5933 66.5439 31.0467 68.0635 30.6039C69.5348 30.1847 71.0655 29.9775 72.6032 29.9894C74.8968 29.9894 76.4825 30.5239 77.3603 31.5929C78.044 32.4246 78.3847 33.8697 78.3847 35.919L78.3762 35.9202ZM71.6126 38.9201C71.2164 38.9201 70.8057 39.0675 70.3805 39.3625C69.9045 39.6952 69.6629 40.175 69.6629 40.7929C69.6558 40.9542 69.6843 41.1152 69.7466 41.2657C69.809 41.4162 69.9039 41.553 70.0253 41.6676C70.122 41.7577 70.2371 41.8286 70.3637 41.876C70.4903 41.9235 70.6259 41.9465 70.7622 41.9437C71.6537 41.9437 72.1003 41.1625 72.1019 39.6002C72.105 39.4522 72.0957 39.3043 72.0741 39.1577C72.0354 39.0004 71.8844 38.9201 71.6163 38.9201H71.6126ZM98.5859 34.7784V37.1989C98.6141 39.3625 98.7116 40.5749 98.8783 40.8359C98.9417 41.0435 99.0721 41.2277 99.2516 41.3632C99.4579 41.4581 99.6537 41.5718 99.8362 41.7027C100.115 41.8589 100.257 42.1214 100.257 42.4824C100.257 43.1047 99.9595 43.5382 99.3687 43.7905C97.6292 44.5273 95.8419 45.1608 94.0173 45.6871C93.6989 45.7863 93.367 45.8423 93.0316 45.8534C92.5073 45.8534 92.244 45.549 92.244 44.9481V44.5589C92.244 44.073 92.1385 43.8305 91.9275 43.8312C91.8067 43.8312 91.4841 44.0021 90.9611 44.3495C90.3399 44.7412 89.6611 45.0462 88.9462 45.2548C88.2516 45.4715 87.5255 45.586 86.7935 45.5943C86.0406 45.5913 85.2989 45.4235 84.6276 45.1043C83.9646 44.8167 83.3911 44.3749 82.9617 43.8211C82.5197 43.2306 82.2438 42.5452 82.1596 41.8283C82.0407 40.8706 81.9854 39.9068 81.9941 38.9427V36.2517C81.9845 35.0862 81.947 34.2872 81.8818 33.8595C81.8484 33.6315 81.7611 33.4133 81.6263 33.2209C81.4915 33.0285 81.3126 32.8666 81.1026 32.7471C80.7402 32.5468 80.5168 32.3714 80.4322 32.2334C80.3124 32.0046 80.2559 31.7513 80.2679 31.4967C80.2679 30.9875 80.4093 30.6401 80.6968 30.4545C80.8707 30.3413 81.1594 30.2746 81.5556 30.2746C81.6305 30.2746 82.0884 30.2927 82.9388 30.3311C83.4292 30.3504 84.0187 30.3594 84.7121 30.3594C85.3218 30.3594 85.8114 30.35 86.1811 30.3311C86.7851 30.2927 87.1994 30.2746 87.441 30.2746C87.8179 30.2746 88.0873 30.3787 88.2431 30.5925C88.3639 30.7589 88.4219 31.0452 88.4219 31.4243L88.3083 34.4683V37.578C88.3083 38.98 88.4883 40.0121 88.8471 40.6831C89.2192 41.3915 89.8654 41.7434 90.7726 41.7434C91.4238 41.7434 91.8429 41.5714 92.0374 41.2251C92.1401 41.0486 92.2065 40.3787 92.2452 39.2041V36.2517C92.2532 35.4531 92.2166 34.6546 92.1353 33.8595C92.1014 33.6341 92.0144 33.4186 91.8807 33.2286C91.747 33.0386 91.5699 32.8787 91.3621 32.7607C91.013 32.557 90.7956 32.3805 90.711 32.2334C90.5908 32.0047 90.5339 31.7514 90.5455 31.4967C90.5455 30.9965 90.6869 30.6503 90.9744 30.4545C91.1495 30.3413 91.4322 30.2746 91.82 30.2746C91.9094 30.2746 92.3817 30.2881 93.2309 30.3221C93.7685 30.3458 94.3918 30.3594 95.0997 30.3594C95.6795 30.3594 96.1567 30.3458 96.5251 30.3221C97.0723 30.2881 97.4637 30.2746 97.7041 30.2746C98.3697 30.2746 98.7007 30.7272 98.7007 31.62L98.5859 34.7784ZM102.262 39.3195V34.7546C102.262 34.2601 102.148 33.8844 101.922 33.623C101.814 33.5046 101.578 33.3571 101.215 33.1805C100.95 33.0572 100.818 32.7426 100.818 32.2345C100.813 32.0339 100.857 31.8349 100.948 31.6532C101.039 31.4715 101.173 31.3121 101.341 31.1878C101.997 30.6936 104.064 29.3704 107.542 27.2181C107.719 27.1001 107.929 27.0325 108.146 27.0234C108.524 27.0234 108.713 27.3324 108.713 27.9548C108.713 28.0838 108.704 28.3406 108.685 28.7209C108.665 28.9913 108.656 29.2199 108.656 29.4145C108.647 29.641 108.676 29.8674 108.742 30.0856C108.802 30.3119 109.048 30.4183 109.466 30.4183C109.607 30.4185 109.748 30.4091 109.887 30.39L110.538 30.2995C110.72 30.2679 110.905 30.2505 111.09 30.2474C111.765 30.2474 112.103 30.6687 112.105 31.5114C112.116 32.0337 111.988 32.5503 111.731 33.0142C111.538 33.3567 111.118 33.5279 110.471 33.5279H109.755C109.301 33.5279 108.999 33.6083 108.843 33.7656C108.664 33.9512 108.575 34.5023 108.565 35.42V38.2207C108.565 39.4753 108.649 40.3168 108.815 40.7453C109.057 41.3734 109.54 41.6868 110.265 41.6868C110.505 41.6851 110.745 41.6693 110.982 41.6393C111.158 41.617 111.334 41.6045 111.511 41.602C112.054 41.602 112.328 41.9007 112.328 42.5073C112.328 43.2485 111.888 43.924 111.011 44.5283C109.997 45.2216 108.741 45.5686 107.245 45.5694C105.504 45.5694 104.208 45.1096 103.356 44.19C102.755 43.5416 102.396 42.7271 102.333 41.8702C102.275 41.2851 102.247 40.4342 102.247 39.3218L102.262 39.3195ZM121.426 29.9634C123.68 29.9634 125.545 30.5073 127.019 31.5951C128.779 32.9025 129.66 34.8202 129.66 37.3482C129.669 38.4814 129.468 39.6074 129.066 40.6763C128.711 41.655 128.14 42.5526 127.391 43.3107C125.881 44.8195 123.685 45.5739 120.803 45.5739C118.468 45.5739 116.586 45.0492 115.158 43.9999C114.169 43.3019 113.42 42.348 113.002 41.2557C112.687 40.41 112.53 39.4244 112.53 38.2988C112.53 35.7451 113.255 33.7433 114.704 32.2934C116.266 30.743 118.507 29.9679 121.428 29.9679L121.426 29.9634ZM120.72 33.0493C119.564 33.0493 118.986 34.4506 118.988 37.2532C118.978 38.3941 119.133 39.531 119.447 40.6333C119.767 41.7412 120.324 42.2923 121.108 42.2923C121.778 42.2923 122.235 41.903 122.475 41.1188C122.623 40.6661 122.698 39.9679 122.698 39.0264C122.698 37.3573 122.561 35.9451 122.282 34.7806C122.003 33.6162 121.485 33.0493 120.72 33.0493Z" fill="white"/>
</svg>
